<?xml version="1.0" encoding="UTF-8" standalone="no"?>
<svg xmlns:svg="http://www.w3.org/2000/svg" xmlns="http://www.w3.org/2000/svg" version="1.0" width="325" height="325" id="svg2">
    <defs id="defs5"/>
    <g style="opacity: 0.1;" transform="translate(-18.45605,-94.58725)" id="g8390">
        <path d="M 71.777191,182.09383 C 79.763572,166.64227 87.760294,149.47906 104.84573,142.18731 C 118.93477,133.50865 133.76747,125.88123 150.44411,124.10026 C 166.0941,121.65682 181.39195,118.9215 197.42995,120.00934 C 216.44857,119.54192 234.15061,127.83699 252.57146,131.67647 C 261.44872,133.94352 271.13446,143.41617 279.43089,148.18782 C 285.26756,151.54475 284.4315,157.15522 292.00265,160.88694 C 302.66151,166.13139 299.91644,174.42298 316.26823,186.98773 C 328.88591,196.68317 331.78611,213.14743 331.64469,227.86503 C 331.55888,236.79538 336.07798,243.75211 328.90675,258.26404 C 326.19982,263.74185 320.09363,267.99199 315.04476,271.81532 C 309.03396,276.36708 306.3219,283.79484 300.87339,288.41782 C 294.4797,293.84275 285.24041,296.25112 276.20518,298.19846 C 268.28925,299.90456 260.41573,300.56511 253.36124,303.72762 C 242.65199,308.52855 236.51847,303.34448 232.81705,302.96295 C 228.072,302.91028 231.43699,295.21678 233.53074,295.46918 C 231.43588,295.15875 230.75879,298.41819 230.21717,300.15916 C 229.51568,302.41401 227.45135,305.48919 225.27229,305.81774 C 220.71281,306.50519 216.51794,301.45516 213.75124,297.5083 C 212.42637,295.61829 212.78266,291.69147 212.78266,289.45376 C 209.8632,295.26914 204.31364,301.42237 199.68128,301.38264 C 194.2431,301.33644 193.38941,291.01672 187.95631,286.24214 C 183.11839,300.28785 181.42028,299.49782 181.27817,309.28424 C 180.69665,349.33054 184.21233,336.5942 183.7761,344.96893 C 183.61339,348.09274 183.30216,352.47438 178.11754,361.23094 C 171.67734,372.10811 167.35977,379.39159 154.61662,382.38686 C 146.78328,384.22808 139.36091,383.75667 131.26864,385.19066 C 110.03803,388.95281 104.10666,390.10237 91.352782,390.49238 C 80.762769,391.43787 67.101005,399.56528 57.911139,387.84152 C 50.688795,378.62778 48.603096,383.38502 38.437498,362.14855 C 37.89648,361.02096 37.74827,356.66791 37.064498,356.65059 C 35.12059,356.60133 33.78109,350.9878 33.882615,346.442 C 33.985778,341.7107 30.581991,347.44829 31.919052,329.85912 C 32.133041,327.04407 24.574981,326.99235 33.645556,312.59782 C 42.252967,298.93831 56.395186,296.20177 57.095489,277.21901 C 57.637881,262.31273 40.818861,247.34538 40.986405,245.00084 C 41.496587,237.86162 61.398967,225.48368 52.813327,208.60247 C 46.789501,196.75833 46.780023,183.5574 56.687664,182.29776 C 61.680604,181.92304 66.800227,182.80019 71.777191,182.09383 z " style="opacity:1;color:black;fill:white;fill-opacity:1;fill-rule:evenodd;stroke:black;stroke-width:3;stroke-linecap:round;stroke-linejoin:round;marker:none;marker-start:none;marker-mid:none;marker-end:none;stroke-miterlimit:4;stroke-dasharray:none;stroke-dashoffset:0;stroke-opacity:1;visibility:visible;display:inline;overflow:visible" id="path2830"/>
        <path d="M 100.35477,176.09207 C 93.156641,175.51434 89.757303,186.05056 83.86375,188.74363 C 82.431905,189.39791 78.01109,188.69338 73.071852,188.6995 C 70.530138,188.70256 89.441266,191.80179 77.457219,191.58135 C 73.771706,191.51621 80.216139,185.42312 79.014963,203.19939 C 78.871221,205.32664 82.042818,207.69751 81.85284,210.11759 C 81.690941,212.17998 74.778959,216.52701 83.55512,219.58641 C 89.236389,221.56693 92.900408,225.85591 94.587255,231.17184 C 98.349274,239.37192 95.209162,248.77424 97.759523,257.20371 C 100.43737,263.25865 108.21081,265.37178 114.24667,267.43457 C 124.92877,271.08523 132.91788,273.45579 146.78327,269.38164 C 157.09775,266.35087 163.10558,266.43618 171.24329,270.52215 C 177.90751,273.7874 187.01793,272.18333 193.4109,268.89341 C 200.36132,265.2864 203.12442,257.15585 211.83281,257.94406 C 217.68233,258.13145 221.65078,257.17603 223.05867,250.6372" style="opacity:1;color:black;fill:none;fill-opacity:1;fill-rule:evenodd;stroke:black;stroke-width:3;stroke-linecap:round;stroke-linejoin:round;marker:none;marker-start:none;marker-mid:none;marker-end:none;stroke-miterlimit:4;stroke-dasharray:none;stroke-dashoffset:0;stroke-opacity:1;visibility:visible;display:inline;overflow:visible" id="path1938"/>
        <path d="M 226.95173,265.63276 C 226.47654,264.31625 215.84864,270.04072 209.94591,268.90883 C 204.14955,267.79734 196.91812,269.81957 194.12881,273.16178 C 190.19039,277.88091 195.99253,289.23315 200.85376,291.69631 C 203.59112,293.08332 205.69359,288.94887 206.90856,287.60942 C 213.89478,279.90747 206.61364,274.64286 218.61982,271.70388 C 223.33072,270.5507 227.96012,268.42645 226.95173,265.63276 z " style="opacity:1;color:black;fill:black;fill-opacity:1;fill-rule:evenodd;stroke:none;stroke-width:3.5;stroke-linecap:round;stroke-linejoin:round;marker:none;marker-start:none;marker-mid:none;marker-end:none;stroke-miterlimit:4;stroke-dasharray:none;stroke-dashoffset:0;stroke-opacity:1;visibility:visible;display:inline;overflow:visible" id="path1875"/>
        <path d="M 188.021,284.08881 L 188.021,281.20505 C 188.021,281.20505 184.92096,285.67487 177.78366,285.67487 C 174.64517,285.67487 175.80108,290.0726 160.04855,289.85632 C 153.23289,289.76188 154.12095,287.161 137.69943,286.82838 C 128.3363,286.64043 120.97811,289.66993 112.7613,289.45337 C 107.52537,289.3129 103.10474,291.44449 98.624512,293.89358 C 90.502612,298.33337 94.623299,301.21112 88.387173,300.95879 C 83.441959,300.76322 82.38545,295.13761 78.870772,295.19127 C 74.292807,295.26336 74.581183,294.54243 74.689324,297.78666 M 157.74154,290.57726 C 156.96023,292.92576 153.63772,294.31388 150.78753,295.52337 C 145.96748,297.56877 142.38588,297.6781 138.92206,295.05364 C 135.377,292.36764 134.25481,290.88621 135.39242,287.40513" style="opacity:1;fill:none;fill-rule:evenodd;stroke:black;stroke-width:3;stroke-linecap:round;stroke-linejoin:round;stroke-miterlimit:4;stroke-dasharray:none;stroke-opacity:1" id="path2114"/>
        <path d="M 111.31305,291.15401 C 110.66524,301.29977 110.38042,304.00435 115.63869,310.18682 C 119.56282,314.80066 119.80479,326.91434 115.35031,332.39174 C 111.7253,336.8492 110.71076,353.81641 98.7687,355.31762" style="opacity:1;color:black;fill:none;fill-opacity:1;fill-rule:evenodd;stroke:black;stroke-width:3;stroke-linecap:round;stroke-linejoin:round;marker:none;marker-start:none;marker-mid:none;marker-end:none;stroke-miterlimit:4;stroke-dasharray:none;stroke-dashoffset:0;stroke-opacity:1;visibility:visible;display:inline;overflow:visible" id="path3889"/>
        <path d="M 51.763451,200.60402 C 61.449414,204.74398 59.053093,217.32048 70.749893,218.19997 C 75.892377,218.58664 74.95299,221.93011 75.718525,225.90958 C 76.673178,230.87214 77.604908,236.4871 77.579809,240.8316 C 77.510928,253.04244 68.759664,261.88653 69.480071,254.21968 C 71.051779,237.34877 59.449728,238.7073 64.438364,232.89924 C 67.313063,229.55235 64.194915,222.01555 65.893863,217.474" style="opacity:1;color:black;fill:black;fill-opacity:1;fill-rule:evenodd;stroke:black;stroke-width:3;stroke-linecap:round;stroke-linejoin:round;marker:none;marker-start:none;marker-mid:none;marker-end:none;stroke-miterlimit:4;stroke-dasharray:none;stroke-dashoffset:0;stroke-opacity:1;visibility:visible;display:inline;overflow:visible" id="path3891"/>
        <path d="M 114.77356,323.30791 C 98.997586,321.97857 106.44384,325.98741 102.64848,325.8884 C 99.685096,325.8111 99.130048,334.57497 108.2737,334.01075 C 112.9663,333.71655 113.4693,333.57665 116.54429,329.34009 C 118.09012,327.21032 117.14121,323.50926 114.77356,323.30791 z " style="opacity:1;color:black;fill:none;fill-opacity:1;fill-rule:evenodd;stroke:black;stroke-width:3;stroke-linecap:round;stroke-linejoin:round;marker:none;marker-start:none;marker-mid:none;marker-end:none;stroke-miterlimit:4;stroke-dasharray:none;stroke-dashoffset:0;stroke-opacity:1;visibility:visible;display:inline;overflow:visible" id="path3900"/>
        <path d="M 98.048299,325.7206 C 94.384107,319.63306 90.150746,327.75533 86.355783,327.86853 C 84.113338,327.93542 82.835551,336.03338 90.10656,336.42344 C 94.944637,336.68299 97.464978,336.42191 99.098088,333.62722 C 100.42584,331.35509 99.273709,327.75645 98.048299,325.7206 z " style="opacity:1;color:black;fill:none;fill-opacity:1;fill-rule:evenodd;stroke:black;stroke-width:3;stroke-linecap:round;stroke-linejoin:round;marker:none;marker-start:none;marker-mid:none;marker-end:none;stroke-miterlimit:4;stroke-dasharray:none;stroke-dashoffset:0;stroke-opacity:1;visibility:visible;display:inline;overflow:visible" id="path4795"/>
        <path d="M 81.024716,329.57361 C 76.639585,325.5047 71.252721,329.30133 69.3322,329.41453 C 67.092645,329.54654 65.811968,338.73289 73.082977,339.12295 C 77.921054,339.3825 80.153019,338.83304 81.786129,336.03835 C 83.113881,333.76622 82.766572,331.18986 81.024716,329.57361 z " style="opacity:1;color:black;fill:none;fill-opacity:1;fill-rule:evenodd;stroke:black;stroke-width:3;stroke-linecap:round;stroke-linejoin:round;marker:none;marker-start:none;marker-mid:none;marker-end:none;stroke-miterlimit:4;stroke-dasharray:none;stroke-dashoffset:0;stroke-opacity:1;visibility:visible;display:inline;overflow:visible" id="path4797"/>
        <path d="M 67.182679,330.29455 C 59.625414,328.82103 61.301086,332.92055 59.527424,332.58667 C 58.184511,332.33388 57.449071,339.30964 62.413074,339.6997 C 67.243219,340.07925 66.022607,340.13074 66.934777,338.20117 C 68.059498,335.82199 69.514956,330.74931 67.182679,330.29455 z " style="opacity:1;color:black;fill:none;fill-opacity:1;fill-rule:evenodd;stroke:black;stroke-width:3;stroke-linecap:round;stroke-linejoin:round;marker:none;marker-start:none;marker-mid:none;marker-end:none;stroke-miterlimit:4;stroke-dasharray:none;stroke-dashoffset:0;stroke-opacity:1;visibility:visible;display:inline;overflow:visible" id="path4799"/>
        <path d="M 57.810467,334.04344 C 54.146275,327.9559 47.737053,333.73573 45.829576,333.4518 C 44.460535,333.24801 42.741907,342.1934 50.733856,341.28577 C 55.547944,340.73904 54.934344,341.5913 57.27419,339.35468 C 58.74613,337.94767 59.035877,336.07929 57.810467,334.04344 z " style="opacity:1;color:black;fill:none;fill-opacity:1;fill-rule:evenodd;stroke:black;stroke-width:3;stroke-linecap:round;stroke-linejoin:round;marker:none;marker-start:none;marker-mid:none;marker-end:none;stroke-miterlimit:4;stroke-dasharray:none;stroke-dashoffset:0;stroke-opacity:1;visibility:visible;display:inline;overflow:visible" id="path4801"/>
        <path d="M 43.824243,333.46669 C 40.72024,329.81898 36.238036,330.64339 37.178302,334.31693 C 37.772339,336.63777 34.37901,341.32827 38.622073,341.42996 C 43.465807,341.54222 43.468194,341.91487 44.153092,339.78724 C 45.015428,337.10841 44.900418,334.73137 43.824243,333.46669 z " style="opacity:1;color:black;fill:none;fill-opacity:1;fill-rule:evenodd;stroke:black;stroke-width:3;stroke-linecap:round;stroke-linejoin:round;marker:none;marker-start:none;marker-mid:none;marker-end:none;stroke-miterlimit:4;stroke-dasharray:none;stroke-dashoffset:0;stroke-opacity:1;visibility:visible;display:inline;overflow:visible" id="path4803"/>
        <path d="M 111.88092,335.19693 C 108.4451,331.20771 104.57863,336.02095 100.62097,335.7588 C 96.662648,335.4966 96.306589,341.80342 98.748414,343.44858 C 104.543,347.35264 105.80146,343.78773 109.03764,343.96868 C 111.93974,344.13095 113.10212,336.61483 111.88092,335.19693 z " style="opacity:1;color:black;fill:none;fill-opacity:1;fill-rule:evenodd;stroke:black;stroke-width:3;stroke-linecap:round;stroke-linejoin:round;marker:none;marker-start:none;marker-mid:none;marker-end:none;stroke-miterlimit:4;stroke-dasharray:none;stroke-dashoffset:0;stroke-opacity:1;visibility:visible;display:inline;overflow:visible" id="path4805"/>
        <path d="M 95.443505,337.50394 C 92.64444,333.57922 91.439025,340.54799 84.32774,336.19136 C 83.530106,335.7027 81.670516,338.08824 81.23565,341.23745 C 80.627563,345.64108 81.978799,351.40018 85.627323,351.66729 C 89.741623,351.9685 91.976426,348.63781 96.06073,346.85244 C 98.472048,345.79838 96.823235,339.43854 95.443505,337.50394 z " style="opacity:1;color:black;fill:none;fill-opacity:1;fill-rule:evenodd;stroke:black;stroke-width:3;stroke-linecap:round;stroke-linejoin:round;marker:none;marker-start:none;marker-mid:none;marker-end:none;stroke-miterlimit:4;stroke-dasharray:none;stroke-dashoffset:0;stroke-opacity:1;visibility:visible;display:inline;overflow:visible" id="path4807"/>
        <path d="M 80.736341,340.53189 C 80.859983,338.20665 70.531781,339.10611 66.736818,339.21931 C 65.273706,339.26295 66.313523,345.57636 65.867668,349.58148 C 65.69392,351.14226 70.12251,353.26198 71.496911,353.39754 C 76.318548,353.87311 77.557638,352.09832 80.488439,349.44782 C 82.440279,347.68265 80.589507,343.29326 80.736341,340.53189 z " style="opacity:1;color:black;fill:none;fill-opacity:1;fill-rule:evenodd;stroke:black;stroke-width:3;stroke-linecap:round;stroke-linejoin:round;marker:none;marker-start:none;marker-mid:none;marker-end:none;stroke-miterlimit:4;stroke-dasharray:none;stroke-dashoffset:0;stroke-opacity:1;visibility:visible;display:inline;overflow:visible" id="path4809"/>
        <path d="M 65.164049,341.6854 C 61.499857,335.59786 57.69906,342.27825 53.904097,342.39145 C 52.640773,342.42913 52.995744,349.11474 55.040961,349.44755 C 56.570565,349.69646 55.615062,354.15529 58.520001,354.40687 C 62.34324,354.73797 61.841158,352.38671 64.195208,349.73621 C 65.942761,347.76858 66.389459,343.72125 65.164049,341.6854 z " style="opacity:1;color:black;fill:none;fill-opacity:1;fill-rule:evenodd;stroke:black;stroke-width:3;stroke-linecap:round;stroke-linejoin:round;marker:none;marker-start:none;marker-mid:none;marker-end:none;stroke-miterlimit:4;stroke-dasharray:none;stroke-dashoffset:0;stroke-opacity:1;visibility:visible;display:inline;overflow:visible" id="path4811"/>
        <path d="M 52.980528,342.66053 C 49.876525,339.01282 44.240818,342.00005 45.181084,345.67359 C 45.775121,347.99443 42.237604,356.00125 46.480667,356.10294 C 51.324401,356.2152 51.615164,354.28085 52.300062,352.15322 C 53.162398,349.47439 54.056703,343.92521 52.980528,342.66053 z " style="opacity:1;color:black;fill:none;fill-opacity:1;fill-rule:evenodd;stroke:black;stroke-width:3;stroke-linecap:round;stroke-linejoin:round;marker:none;marker-start:none;marker-mid:none;marker-end:none;stroke-miterlimit:4;stroke-dasharray:none;stroke-dashoffset:0;stroke-opacity:1;visibility:visible;display:inline;overflow:visible" id="path4813"/>
        <path d="M 43.175752,344.2466 C 40.071749,340.59889 32.994164,343.29774 33.93443,346.97128 C 34.528467,349.29212 34.307271,356.86638 38.550334,356.96807 C 43.394068,357.08033 43.829019,356.44367 44.513917,354.31604 C 45.376253,351.63721 44.251927,345.51128 43.175752,344.2466 z " style="opacity:1;color:black;fill:none;fill-opacity:1;fill-rule:evenodd;stroke:black;stroke-width:3;stroke-linecap:round;stroke-linejoin:round;marker:none;marker-start:none;marker-mid:none;marker-end:none;stroke-miterlimit:4;stroke-dasharray:none;stroke-dashoffset:0;stroke-opacity:1;visibility:visible;display:inline;overflow:visible" id="path4815"/>
        <path d="M 36.254734,333.28832 C 33.150731,329.64061 31.191815,328.15801 32.132081,331.83155 C 32.726118,334.15239 30.125822,341.58246 34.368885,341.68415 C 39.212619,341.79641 35.898685,341.7365 36.583583,339.60887 C 37.445919,336.93004 37.330909,334.553 36.254734,333.28832 z " style="opacity:1;color:black;fill:none;fill-opacity:1;fill-rule:evenodd;stroke:black;stroke-width:3;stroke-linecap:round;stroke-linejoin:round;marker:none;marker-start:none;marker-mid:none;marker-end:none;stroke-miterlimit:4;stroke-dasharray:none;stroke-dashoffset:0;stroke-opacity:1;visibility:visible;display:inline;overflow:visible" id="path4817"/>
        <path d="M 69.49856,271.1119 C 69.210184,270.67933 68.921808,270.24677 68.633433,269.81421 C 68.259434,269.25321 67.786397,268.98526 67.47993,268.37233 C 67.350002,268.11247 66.897696,267.79009 66.75899,267.65139" style="opacity:1;color:black;fill:none;fill-opacity:1;fill-rule:evenodd;stroke:black;stroke-width:3;stroke-linecap:round;stroke-linejoin:round;marker:none;marker-start:none;marker-mid:none;marker-end:none;stroke-miterlimit:4;stroke-dasharray:none;stroke-dashoffset:0;stroke-opacity:1;visibility:visible;display:inline;overflow:visible" id="path4819"/>
        <path d="M 68.921808,290.57726 C 68.614184,289.96201 68.576859,289.223 67.768305,288.41444 C 67.200881,287.84702 66.614802,287.4459 66.614802,286.54 C 66.614802,286.01202 66.639253,285.57707 66.75899,285.09812" style="opacity:1;color:black;fill:none;fill-opacity:1;fill-rule:evenodd;stroke:black;stroke-width:3;stroke-linecap:round;stroke-linejoin:round;marker:none;marker-start:none;marker-mid:none;marker-end:none;stroke-miterlimit:4;stroke-dasharray:none;stroke-dashoffset:0;stroke-opacity:1;visibility:visible;display:inline;overflow:visible" id="path4821"/>
        <path d="M 71.228814,297.64247 C 71.228814,297.28147 71.228814,295.99563 71.228814,295.19127 C 71.228814,294.90665 71.152967,294.59951 71.084627,294.32615" style="opacity:1;color:black;fill:none;fill-opacity:1;fill-rule:evenodd;stroke:black;stroke-width:3;stroke-linecap:round;stroke-linejoin:round;marker:none;marker-start:none;marker-mid:none;marker-end:none;stroke-miterlimit:4;stroke-dasharray:none;stroke-dashoffset:0;stroke-opacity:1;visibility:visible;display:inline;overflow:visible" id="path4823"/>
        <path d="M 70.940439,305.28443 C 70.940439,304.52449 71.700773,306.62151 72.23813,307.15887 C 72.663259,307.584 72.804116,308.26931 72.959069,308.88912 C 73.064635,309.31139 72.959069,309.89501 72.959069,310.331" style="opacity:1;color:black;fill:none;fill-opacity:1;fill-rule:evenodd;stroke:black;stroke-width:3;stroke-linecap:round;stroke-linejoin:round;marker:none;marker-start:none;marker-mid:none;marker-end:none;stroke-miterlimit:4;stroke-dasharray:none;stroke-dashoffset:0;stroke-opacity:1;visibility:visible;display:inline;overflow:visible" id="path4825"/>
        <path d="M 238.19838,291.15401 C 238.43065,292.08306 238.2974,288.98903 239.06351,288.41444 C 239.5017,288.0858 241.33324,288.46466 241.80308,288.55863" style="opacity:1;color:black;fill:none;fill-opacity:1;fill-rule:evenodd;stroke:black;stroke-width:3;stroke-linecap:round;stroke-linejoin:round;marker:none;marker-start:none;marker-mid:none;marker-end:none;stroke-miterlimit:4;stroke-dasharray:none;stroke-dashoffset:0;stroke-opacity:1;visibility:visible;display:inline;overflow:visible" id="path4827"/>
        <path d="M 72.526505,181.71541 C 73.146495,181.25042 72.626919,183.27057 72.814881,184.02242 C 73.015861,184.82634 74.414012,184.74336 75.121887,184.74336 C 75.842827,184.74336 76.563766,184.74336 77.284706,184.74336" style="opacity:1;color:black;fill:none;fill-opacity:1;fill-rule:evenodd;stroke:black;stroke-width:3;stroke-linecap:round;stroke-linejoin:round;marker:none;marker-start:none;marker-mid:none;marker-end:none;stroke-miterlimit:4;stroke-dasharray:none;stroke-dashoffset:0;stroke-opacity:1;visibility:visible;display:inline;overflow:visible" id="path4829"/>
        <path d="M 105.97809,170.90132 C 106.37459,170.90132 107.55308,169.7589 107.99672,169.31525 C 108.53896,168.77302 108.66696,168.07618 108.86185,167.29662 C 109.08823,166.3911 109.14181,166.00734 109.58279,165.56637 C 109.78034,165.36882 110.69811,165.66496 110.88048,165.71055" style="opacity:1;color:black;fill:none;fill-opacity:1;fill-rule:evenodd;stroke:black;stroke-width:3;stroke-linecap:round;stroke-linejoin:round;marker:none;marker-start:none;marker-mid:none;marker-end:none;stroke-miterlimit:4;stroke-dasharray:none;stroke-dashoffset:0;stroke-opacity:1;visibility:visible;display:inline;overflow:visible" id="path4831"/>
        <path d="M 114.91774,161.09654 C 115.23142,160.78287 114.64821,163.51004 115.49449,161.81748" style="opacity:1;color:black;fill:none;fill-opacity:1;fill-rule:evenodd;stroke:black;stroke-width:3;stroke-linecap:round;stroke-linejoin:round;marker:none;marker-start:none;marker-mid:none;marker-end:none;stroke-miterlimit:4;stroke-dasharray:none;stroke-dashoffset:0;stroke-opacity:1;visibility:visible;display:inline;overflow:visible" id="path4833"/>
    </g>

</svg>